<?xml version="1.0" encoding="UTF-8"?>
<svg id="Layer_2" data-name="Layer 2" xmlns="http://www.w3.org/2000/svg" viewBox="0 0 110.89 110.89">
  <defs>
    <style>
      .cls-1 {
        fill: #1b1b1b;
        fill-rule: evenodd;
      }
    </style>
  </defs>
  <g id="craft_logopack">
    <g id="craft_icon_black">
      <path class="cls-1" d="m59.62,107.6c0,1.82,1.47,3.29,3.29,3.29h44.79c1.82,0,3.3-1.48,3.18-3.29-1.63-26.06-21.91-46.54-47.97-48.16-1.81-.11-3.29,1.37-3.29,3.18v44.98Z"/>
      <path class="cls-1" d="m51.65,62.72c0-1.82-1.47-3.29-3.29-3.29H3.19c-1.82,0-3.3,1.48-3.18,3.29,1.63,26.06,22.29,46.54,48.35,48.16,1.81.11,3.29-1.37,3.29-3.18v-44.98Z"/>
      <path class="cls-1" d="m51.65,48.17c0,1.82-1.47,3.29-3.29,3.29H3.19c-1.82,0-3.3-1.48-3.18-3.29C1.63,22.11,22.3,1.63,48.36,0c1.81-.11,3.29,1.37,3.29,3.18v44.98Z"/>
      <path class="cls-1" d="m59.62,3.29c0-1.82,1.47-3.29,3.29-3.29h44.79c1.82,0,3.3,1.48,3.18,3.29-1.63,26.06-21.91,46.54-47.97,48.16-1.81.11-3.29-1.37-3.29-3.18V3.29Z"/>
    </g>
  </g>
</svg>